<svg id="Layer_1" enable-background="new 0 0 480 480" height="512" viewBox="0 0 480 480" width="512" xmlns="http://www.w3.org/2000/svg"><path d="m434.279 24v432c0 8.837-7.163 16-16 16h-356.28c-8.837 0-16-7.163-16-16v-432c0-8.837 7.163-16 16-16h356.28c8.836 0 16 7.163 16 16z" fill="#b9dcff"/><path d="m387.089 70v340c0 8.837-7.163 16-16 16h-262.18c-8.837 0-16-7.163-16-16v-340c0-8.837 7.163-16 16-16h262.18c8.836 0 16 7.163 16 16z" fill="#d1e7ff"/><path d="m276.539 132.6c-39.648-39.648-108.4-11.832-108.4 44.9v112.9c1.82-.76 3.69-1.4 5.62-1.91 24.157 56.53 89.415 46.764 121.38-1.49v-109.5c0-17.54-7.11-33.41-18.6-44.9z" fill="#b9dcff"/><path d="m235.989 140.15c-24.87 7.86-44.62 30.68-44.62 60.58v53.84c3.71 1.86 7.728 3.19 11.958 3.88 3.89.64 6.812 3.902 6.812 7.852v12.698c0 4.42-3.58 8-8 8-15.43.32-22.72-1.31-34 3.4v-111.93c0-34.869 27.828-64.47 63.63-64.47 15.25.03 18.76 21.55 4.22 26.15z" fill="#d1e7ff"/><path d="m339.139 331v95h-198v-95c0-24.309 19.703-44 44-44h17c4.418 0 8-3.582 8-8v-12.698c0-3.949-2.915-7.216-6.812-7.852-19.958-3.254-35.188-20.57-35.188-41.45v-25.26c0-37.419 45.026-57.114 71.7-30.44 7.6 7.6 12.3 18.1 12.3 29.7v131.44c16.1-6.13 31.54-18.14 43-35.44 24.3 0 44 19.7 44 44z" fill="#b9dcff"/><path d="m187.354 309.703c4.293 4.599 4.76 11.55 1.249 16.77-4.715 7.01-7.464 15.451-7.464 24.527v75h-40v-95c0-20.364 13.877-37.557 32.62-42.51 2.054 4.808 6.277 13.374 13.595 21.213z" fill="#d1e7ff"/><path d="m252.139 191v131.44c-32.631 12.459-63.723.35-78.38-33.95 3.63-.97 7.45-1.49 11.38-1.49h17c4.418 0 8-3.582 8-8v-12.698c0-3.949-2.915-7.216-6.812-7.852-19.958-3.254-35.188-20.57-35.188-41.45v-25.26c0-37.419 45.026-57.114 71.7-30.44 7.6 7.6 12.3 18.1 12.3 29.7z" fill="#d1e7ff"/><path d="m228.979 285.25v12.659c0 4.411-3.574 7.994-7.985 8-14.39.02-18.126-1.268-21.627 3.243-3.014 3.884-8.938 3.888-12.271.273-7.159-7.767-11.304-16.185-13.337-20.935 3.63-.97 7.45-1.49 11.38-1.49h17c4.418 0 8-3.582 8-8v-5.61c3.773 1.9 7.876 3.244 12.2 3.93 3.855.61 6.64 4.027 6.64 7.93z" fill="#e8f3ff"/><path d="m220.88 150.386c9.608 2.536 9.082 16.21-.611 18.398-18.452 4.165-33.722 20.934-33.29 41.796.056 2.712.155 5.233.158 7.602.02 12.266-18.459 12.829-18.962.573-.053-1.293-.036-.231-.036-27.015 0-27.089 25.516-48.541 52.741-41.354z" fill="#e8f3ff"/><path d="m442.139 8v464c0 4.418-3.582 8-8 8h-388.278c-4.418 0-8-3.582-8-8v-464c0-4.418 3.582-8 8-8s8 3.582 8 8v456h372.278v-448h-333.231c-4.418 0-8-3.582-8-8s3.582-8 8-8h341.231c4.418 0 8 3.582 8 8zm-357.231 418v-372c0-4.418 3.582-8 8-8h294.184c4.418 0 8 3.582 8 8v372c0 4.418-3.582 8-8 8s-8-3.582-8-8v-364h-278.184v356h32.231v-87c0-4.418 3.582-8 8-8s8 3.582 8 8v47.016h130v-31.016c0-4.418 3.582-8 8-8s8 3.582 8 8v39c0 4.418-3.582 8-8 8h-49.324c4.976 8.557 4.324 15.283 4.324 24h89v-87c0-19.851-16.149-36-36-36-4.418 0-8-3.582-8-8v-109.5c0-30.603-24.897-55.5-55.5-55.5-19.91 0-37.397 10.543-47.192 26.334 32.626-20.104 75.692 3.391 75.692 42.666 0 143.392.821 133.354-1.85 136.558-5.037 6.074-60.641 23.411-88.692-29.258-5.548 1.126-10.437-3.72-9.458-9.233v-111.567c0-39.425 32.075-71.5 71.5-71.5s71.5 32.075 71.5 71.5v102.117c24.888 3.86 44 25.431 44 51.383v95c0 4.418-3.582 8-8 8h-246.231c-4.418 0-8-3.582-8-8zm117.231-147v-12.64c-9.953-1.607-18.923-6.171-26-12.747v26.177c5.969-1.042 8.54-.79 26-.79zm-15.57-112.108c-6.628 6.581-10.43 15.639-10.43 24.85v25.258c0 18.748 15.252 34 34 34 4.418 0 8 3.582 8 8v28c0 4.418-3.582 8-8 8h-23.982c13.426 21.462 34.508 28.553 57.982 21.7v-125.7c0-29.913-36.083-45.441-57.57-24.108zm-37.43 251.108h77v-7.968c0-8.822-7.178-16-16-16h-61z" fill="#2e58ff"/></svg>