<?xml version="1.0" standalone="no"?>
<!DOCTYPE svg PUBLIC "-//W3C//DTD SVG 20010904//EN"
 "http://www.w3.org/TR/2001/REC-SVG-20010904/DTD/svg10.dtd">
<svg version="1.0" xmlns="http://www.w3.org/2000/svg"
 width="1284.000000pt" height="1710.000000pt" viewBox="0 0 1284.000000 1710.000000"
 preserveAspectRatio="xMidYMid meet">

<g transform="translate(0.000000,1710.000000) scale(0.100000,-0.100000)"
fill="#000000" stroke="none" class="logo-lines">
<path d="M5905 16871 c-131 -37 -265 -117 -440 -259 -82 -67 -106 -82 -135
-82 -128 -2 -267 -49 -390 -133 -83 -57 -221 -201 -363 -377 -183 -227 -265
-312 -412 -424 -66 -50 -162 -131 -213 -180 -76 -74 -100 -104 -133 -170 -50
-102 -69 -192 -69 -327 0 -248 64 -462 215 -719 167 -285 152 -447 -85 -917
-191 -378 -225 -500 -217 -763 6 -186 25 -269 97 -415 27 -55 88 -154 136
-220 190 -262 171 -224 203 -402 16 -87 34 -199 41 -249 11 -88 10 -94 -15
-170 -41 -123 -117 -259 -295 -524 -246 -369 -293 -483 -293 -710 0 -107 3
-138 26 -213 26 -85 84 -211 126 -272 12 -16 21 -33 21 -37 0 -12 -133 -90
-331 -193 -109 -57 -220 -118 -246 -136 -149 -101 -327 -277 -417 -413 -73
-108 -80 -132 -72 -219 10 -107 -13 -146 -174 -298 -117 -110 -133 -129 -170
-206 -77 -158 -104 -313 -115 -668 -10 -322 -38 -456 -131 -633 -80 -153 -119
-205 -256 -338 -135 -132 -215 -199 -448 -379 -201 -154 -314 -251 -426 -366
-421 -436 -681 -1032 -731 -1685 -14 -174 -7 -537 12 -669 34 -240 122 -519
205 -659 68 -112 139 -146 302 -146 113 0 219 30 321 92 144 87 153 89 412
100 245 9 437 11 476 3 13 -3 87 -7 164 -9 123 -4 252 3 680 38 193 16 847 66
857 66 6 0 -44 -35 -111 -77 -256 -163 -424 -307 -479 -411 -16 -31 -41 -93
-56 -137 -49 -153 -58 -236 -62 -573 l-4 -313 24 -24 c15 -15 37 -25 53 -25
48 0 134 52 221 134 l84 80 -6 -45 c-26 -191 -33 -347 -16 -378 16 -31 61 -43
111 -32 24 6 61 11 81 11 33 0 38 -3 44 -27 19 -87 206 -578 230 -604 24 -27
57 -24 135 12 66 31 68 32 80 83 52 223 161 438 286 562 158 159 326 221 763
284 249 36 413 70 523 110 l78 29 93 -34 c110 -40 345 -99 464 -116 79 -12 84
-12 111 9 l29 21 84 -30 c105 -39 295 -79 374 -79 87 0 161 25 205 69 20 20
38 42 40 49 4 10 21 8 81 -12 115 -39 221 -32 278 18 11 11 30 12 75 6 33 -5
92 -11 130 -15 39 -3 88 -8 110 -10 88 -10 244 -25 315 -30 83 -6 177 -14 230
-20 19 -2 76 -7 125 -11 50 -3 103 -8 119 -9 38 -5 253 -19 291 -19 30 0 213
13 264 19 14 2 89 6 166 9 77 4 160 9 185 11 25 2 86 7 135 10 227 15 556 58
660 86 38 11 198 46 355 78 406 84 568 134 749 233 164 89 208 129 460 425
108 127 115 139 210 335 283 585 468 1055 521 1323 7 33 30 119 51 190 73 247
120 501 138 761 13 179 6 577 -14 769 -26 263 -77 565 -115 690 -5 17 -23 138
-40 270 -35 276 -69 484 -105 641 -201 884 -584 1646 -1034 2055 -155 140
-346 260 -515 323 -37 14 -89 41 -115 60 -57 43 -159 148 -236 246 -33 41
-106 127 -163 190 -296 328 -527 657 -702 1005 -174 344 -258 676 -330 1315
-11 102 -23 203 -25 225 -3 22 -14 130 -25 240 -20 191 -25 240 -35 330 -2 22
-7 65 -10 95 -5 50 -30 278 -56 500 -46 408 -128 915 -265 1643 -108 573 -220
832 -469 1082 -239 240 -540 398 -964 505 -282 71 -586 108 -1041 126 -132 5
-157 9 -167 24 -29 41 -208 53 -318 21z m142 -137 c8 -21 -10 -80 -59 -192
-31 -70 -45 -91 -57 -88 -39 12 -275 56 -296 56 -13 0 -26 4 -30 10 -15 24
283 196 380 219 56 13 55 13 62 -5z m618 -75 c448 -34 778 -102 1063 -217 236
-96 411 -211 567 -373 180 -187 283 -382 360 -685 38 -148 256 -1439 310
-1839 9 -66 18 -133 20 -150 3 -16 12 -91 20 -165 9 -74 18 -153 20 -175 3
-22 18 -193 35 -380 17 -187 32 -356 35 -375 2 -19 7 -62 10 -95 82 -778 234
-1311 502 -1758 155 -258 352 -503 714 -888 l120 -128 -84 34 c-413 166 -919
134 -1430 -90 -55 -25 -101 -44 -102 -42 0 1 -18 58 -39 127 -21 69 -71 217
-113 330 -71 196 -74 208 -69 268 4 35 11 118 16 185 5 67 12 133 14 147 3 14
8 48 11 75 3 28 17 127 30 220 31 217 34 252 60 585 3 36 14 180 25 320 20
252 25 305 55 650 31 352 44 507 50 610 4 58 9 119 11 135 10 64 12 675 3 775
-52 585 -212 1034 -494 1379 -65 80 -68 87 -82 165 -102 599 -482 963 -1144
1096 -193 38 -375 52 -717 51 -244 0 -322 3 -320 12 2 7 21 58 43 115 l40 102
165 -5 c91 -3 224 -10 295 -16z m-882 -268 c60 -11 111 -22 115 -26 4 -4 -46
-111 -111 -239 l-118 -233 -127 -7 c-155 -9 -333 -38 -461 -76 -53 -16 -97
-28 -98 -26 -3 3 238 356 279 410 18 23 73 83 123 135 l90 93 100 -6 c55 -4
149 -15 208 -25z m-556 -13 c-15 -18 -68 -91 -119 -163 -154 -215 -445 -584
-542 -686 -180 -189 -320 -369 -377 -481 -39 -78 -75 -206 -95 -340 -13 -89
-15 -154 -11 -305 3 -106 3 -194 -1 -197 -12 -7 -125 183 -159 268 -77 192
-101 396 -69 577 16 86 41 140 102 220 49 64 194 202 334 316 111 92 215 208
386 430 68 89 152 187 186 218 89 81 283 171 372 174 17 1 16 -2 -7 -31z
m1588 -29 c361 -36 634 -110 861 -235 290 -157 469 -414 549 -784 l8 -34 -39
33 c-55 49 -206 147 -294 191 -171 85 -388 156 -625 204 -247 50 -940 130
-1315 152 -63 4 -116 7 -117 8 -2 2 177 363 221 448 l15 27 323 -1 c178 0 364
-4 413 -9z m-625 -639 c418 -36 577 -58 634 -87 163 -83 356 -287 521 -553
208 -335 294 -617 355 -1161 11 -101 36 -290 55 -419 61 -418 76 -638 56 -825
-26 -236 -62 -322 -233 -548 -84 -112 -260 -232 -467 -320 -187 -79 -403 -138
-806 -222 -304 -63 -460 -23 -649 168 -201 203 -529 560 -592 643 -120 159
-200 348 -243 569 -36 191 -42 280 -56 875 -3 124 -8 248 -11 275 l-6 51 79
56 c256 184 433 192 596 25 59 -59 69 -81 25 -54 -42 27 -157 49 -217 42 -128
-14 -233 -59 -306 -128 -52 -50 -58 -86 -23 -124 31 -33 71 -30 121 11 23 18
55 40 71 48 30 15 30 15 49 -24 47 -94 188 -128 265 -63 20 16 33 21 43 14 22
-14 72 -11 96 6 19 13 22 13 28 -3 14 -37 17 -155 5 -229 -6 -43 -43 -169 -80
-280 -80 -238 -101 -322 -101 -413 0 -80 17 -126 59 -162 66 -55 136 -63 354
-37 174 20 232 19 291 -6 64 -27 120 22 103 90 -11 45 -154 116 -234 116 -26
1 -87 -11 -137 -26 -55 -17 -117 -28 -158 -29 -64 -1 -70 1 -93 27 -47 54 -27
187 65 440 111 306 121 435 51 630 -94 256 -280 397 -525 397 -126 0 -272 -44
-383 -114 -23 -14 -44 -26 -46 -26 -24 0 -37 531 -17 706 18 153 52 274 113
406 l41 87 76 32 c180 75 386 133 576 163 59 9 425 -4 655 -24z m1046 -131
c378 -73 726 -239 953 -455 l85 -81 2 -279 c1 -153 -4 -364 -11 -469 -7 -104
-16 -239 -19 -300 -4 -60 -9 -128 -11 -150 -2 -22 -7 -96 -10 -165 -3 -69 -8
-143 -10 -165 -2 -22 -7 -76 -10 -120 -3 -44 -8 -102 -10 -130 -3 -27 -7 -88
-10 -135 -3 -47 -10 -132 -15 -190 -5 -58 -12 -157 -15 -220 -4 -63 -8 -122
-10 -130 -18 -73 -27 -938 -12 -1185 20 -338 95 -660 259 -1112 l69 -193 -10
-72 c-17 -118 -30 -263 -36 -408 -11 -259 -40 -464 -75 -541 -11 -23 -163
-130 -460 -321 -74 -49 -139 -88 -144 -88 -4 0 -5 8 -1 18 18 46 87 298 104
384 59 284 80 533 96 1113 3 110 8 223 10 250 2 28 7 100 10 160 31 639 30
669 -16 950 -42 254 -43 363 -5 705 51 455 38 857 -44 1395 -16 105 -32 217
-35 250 -77 731 -286 1241 -669 1633 -39 39 -67 72 -64 72 4 0 55 -9 114 -21z
m-2615 -300 c-42 -163 -55 -288 -56 -504 0 -177 11 -444 20 -490 8 -37 34
-488 40 -690 3 -110 8 -213 10 -230 2 -16 6 -70 10 -120 18 -265 84 -547 177
-747 l32 -70 -13 -101 c-20 -170 -87 -521 -177 -932 -146 -666 -188 -890 -219
-1160 -8 -77 -18 -156 -21 -175 -3 -19 -7 -156 -9 -303 l-4 -268 -120 -179
c-66 -99 -145 -228 -175 -288 -69 -138 -190 -358 -298 -542 -103 -176 -125
-218 -172 -339 -113 -287 -170 -703 -169 -1232 l0 -215 -38 77 c-86 170 -240
253 -469 251 -168 -1 -338 -61 -531 -188 -45 -29 -83 -53 -84 -51 -5 5 14 610
20 659 16 136 55 256 110 343 18 28 81 96 141 151 128 119 151 159 213 364 51
170 86 240 156 317 102 113 224 195 495 336 250 129 389 233 502 375 70 88 95
138 182 362 143 370 192 637 190 1040 -1 238 -32 486 -104 835 -23 113 -44
294 -60 535 -6 91 -13 185 -15 210 -10 106 -13 694 -4 798 5 62 29 213 54 336
72 358 78 504 30 705 -22 91 -26 126 -24 241 7 413 110 698 340 945 34 36 63
64 65 62 2 -2 -9 -55 -25 -118z m3780 -411 c149 -233 269 -611 313 -988 25
-215 30 -331 30 -625 -1 -383 -24 -692 -103 -1400 -11 -93 -22 -201 -26 -240
-3 -38 -10 -108 -16 -155 -8 -71 -26 -295 -54 -655 -3 -38 -8 -86 -10 -105 -2
-19 -7 -69 -10 -110 -12 -158 -35 -295 -47 -278 -4 7 -31 82 -58 167 -103 314
-162 602 -194 946 -14 155 -18 681 -5 920 16 316 20 401 24 440 2 22 6 81 10
130 6 87 11 159 20 275 8 94 24 311 30 410 3 52 8 115 10 140 5 56 15 229 25
425 4 83 7 293 6 468 -1 174 0 317 1 317 0 0 25 -37 54 -82z m-4370 -1534
c-51 -225 -55 -272 -47 -594 3 -162 8 -315 10 -340 3 -25 7 -99 11 -165 3 -66
8 -138 10 -160 17 -184 17 -191 2 -175 -33 34 -110 158 -152 244 -125 257
-138 512 -41 801 29 86 227 527 233 521 2 -1 -10 -61 -26 -132z m1244 -1435
c121 -124 257 -264 301 -311 65 -68 97 -94 158 -124 45 -22 75 -42 72 -49 -2
-7 -7 -66 -11 -131 -3 -66 -8 -140 -10 -166 -4 -52 11 -305 21 -342 5 -20 -4
-28 -80 -70 -88 -50 -308 -217 -481 -364 -140 -120 -399 -381 -542 -547 -66
-77 -140 -158 -163 -180 l-42 -40 5 200 c14 438 58 736 227 1505 97 444 149
699 174 860 27 170 18 163 89 68 33 -45 160 -185 282 -309z m2478 -106 c21
-126 45 -277 53 -338 24 -163 25 -469 4 -730 -20 -235 -27 -373 -35 -690 -19
-697 -96 -1126 -268 -1496 -42 -89 -51 -101 -184 -230 -78 -75 -172 -160 -209
-189 l-69 -52 -75 6 c-327 26 -882 95 -1180 147 -420 73 -592 132 -975 332
-196 103 -272 155 -341 230 -101 110 -114 176 -60 310 57 140 114 226 250 376
72 80 172 193 220 251 202 238 520 528 756 689 101 70 210 126 220 114 4 -4
17 -33 30 -63 26 -64 81 -153 119 -194 103 -112 275 -46 362 138 22 45 29 76
29 119 0 74 -17 113 -70 161 -64 57 -121 79 -221 84 l-87 4 -12 57 c-36 177
-44 337 -25 511 l6 55 97 3 c53 1 153 11 222 22 610 99 1058 278 1319 526 42
40 78 73 81 74 3 0 22 -102 43 -227z m-3540 -1218 c1 -282 -44 -497 -162 -789
-69 -170 -129 -273 -211 -359 l-57 -61 -43 72 c-123 208 -140 423 -50 649 43
108 82 176 241 420 76 116 165 260 196 320 l58 108 13 -90 c8 -49 14 -171 15
-270z m1928 -34 c39 -40 38 -101 -2 -101 -21 0 -64 59 -74 103 -7 24 -5 27 20
27 16 0 38 -11 56 -29z m2525 -1007 c66 -201 75 -237 63 -248 -8 -7 -58 -36
-113 -65 -90 -48 -98 -50 -92 -29 21 74 40 283 48 520 1 36 6 64 10 62 3 -2
41 -110 84 -240z m1349 -135 c50 -6 126 -22 170 -35 91 -27 558 -260 535 -267
-278 -86 -347 -119 -755 -360 -197 -117 -252 -142 -596 -270 -361 -135 -447
-170 -594 -243 -391 -195 -772 -529 -1219 -1069 -578 -697 -1053 -1544 -1426
-2545 -128 -344 -320 -937 -320 -991 0 -10 -4 -19 -9 -19 -11 0 -157 68 -321
150 -205 101 -449 206 -589 253 -72 24 -134 46 -136 49 -3 2 9 67 26 144 169
774 407 1375 782 1971 307 488 297 476 939 1197 201 226 203 228 553 520 910
760 1603 1254 1870 1331 32 10 88 31 124 47 160 71 429 133 644 146 130 8 197
6 322 -9z m983 -427 c37 -21 92 -55 122 -76 46 -32 50 -37 25 -31 -167 41
-336 32 -506 -26 -74 -25 -197 -85 -252 -123 -21 -14 -40 -26 -43 -26 -11 0
-178 -112 -255 -171 -192 -146 -603 -513 -789 -705 -222 -229 -450 -530 -579
-763 -158 -289 -376 -798 -587 -1376 -48 -132 -112 -305 -142 -385 -97 -258
-201 -567 -253 -753 -27 -100 -81 -283 -119 -407 -143 -468 -203 -759 -244
-1184 -3 -33 -7 -60 -9 -62 -9 -8 -286 -32 -394 -33 l-133 -2 -90 49 -89 48
113 1 c114 2 218 15 261 35 52 23 52 94 1 133 -97 74 -648 286 -896 345 -96
23 -219 75 -227 96 -8 20 115 487 176 664 378 1115 878 2053 1516 2850 413
516 817 861 1282 1097 175 90 244 119 517 222 446 169 595 238 936 434 208
120 312 162 433 176 137 16 152 14 225 -27z m-6674 -317 c68 -82 185 -159 434
-283 276 -138 441 -205 655 -267 148 -42 386 -95 526 -115 135 -21 369 -49
456 -55 50 -4 101 -8 113 -10 13 -2 84 -7 158 -11 74 -4 136 -10 138 -13 3 -4
-41 -47 -96 -96 -209 -188 -788 -819 -957 -1044 -85 -111 -280 -414 -375 -581
-310 -543 -548 -1155 -716 -1841 -27 -111 -53 -206 -58 -211 -24 -24 -138 -30
-426 -24 -164 3 -300 7 -302 9 -2 2 8 32 23 67 76 189 99 530 57 853 -28 220
-57 363 -183 892 -79 336 -107 507 -119 720 -21 411 1 722 79 1105 55 267 117
414 319 760 56 96 118 206 137 244 l35 69 33 -62 c18 -34 49 -82 69 -106z
m6696 55 c124 -12 236 -42 334 -87 75 -36 81 -41 155 -141 77 -103 188 -277
273 -427 180 -318 374 -860 454 -1265 2 -14 -33 49 -79 140 -110 218 -186 349
-323 556 -139 211 -193 260 -322 290 -256 60 -614 -118 -1140 -569 -310 -266
-1085 -996 -1229 -1159 -130 -146 -136 -187 -137 -913 -1 -560 -1 -564 54
-985 31 -238 50 -470 51 -616 0 -127 -2 -141 -26 -190 -45 -91 -129 -152 -289
-210 -114 -40 -238 -65 -491 -99 -229 -30 -448 -67 -610 -102 -142 -30 -210
-39 -202 -26 3 5 7 49 8 99 4 165 43 425 99 662 62 259 130 470 320 1002 76
212 195 567 265 789 70 222 147 445 170 495 23 50 80 188 125 306 46 118 110
274 143 345 33 72 83 182 112 246 87 192 182 330 419 614 268 322 362 416 716
720 355 305 508 408 710 479 154 54 252 65 440 46z m531 -1104 c51 -34 91 -87
201 -266 238 -385 380 -680 506 -1051 107 -313 124 -406 147 -814 4 -60 9
-128 11 -150 5 -57 5 -760 0 -825 -3 -30 -8 -95 -11 -145 -23 -362 -47 -515
-127 -804 -91 -330 -146 -489 -218 -631 -80 -157 -191 -406 -261 -580 -89
-224 -161 -340 -299 -484 -172 -179 -365 -294 -645 -385 -149 -48 -215 -67
-205 -58 3 2 52 40 109 83 284 213 506 487 642 794 148 332 241 786 266 1297
14 284 7 1164 -12 1408 -2 28 -6 133 -10 235 -9 290 -15 461 -20 510 -2 25 -7
88 -10 140 -3 52 -8 106 -10 120 -2 14 -7 54 -10 90 -44 476 -176 958 -364
1327 l-67 132 55 23 c175 71 262 80 332 34z m-458 -253 c209 -411 313 -836
372 -1518 2 -27 7 -97 10 -155 3 -58 8 -139 10 -180 2 -41 7 -160 11 -265 3
-104 9 -280 13 -390 8 -202 5 -1302 -4 -1385 -2 -25 -7 -80 -10 -123 -23 -323
-98 -653 -209 -921 -101 -244 -220 -429 -385 -598 l-85 -88 -22 70 c-49 156
-141 258 -364 405 -85 56 -178 123 -207 149 -30 27 -94 110 -156 204 -58 87
-140 195 -185 243 l-80 85 164 -83 c169 -85 358 -153 425 -153 21 0 47 8 60
19 21 17 24 28 24 83 -2 219 -189 377 -554 468 -180 45 -383 69 -578 70 l-102
0 14 39 c52 149 44 331 -35 739 -16 84 -35 204 -42 265 -14 129 -18 1081 -5
1346 l8 164 32 41 c46 59 165 193 286 323 248 267 992 924 1264 1116 106 75
238 157 254 157 6 0 41 -57 76 -127z m-7945 -534 c127 -63 181 -158 251 -440
27 -108 54 -205 60 -217 37 -68 34 -70 -44 -31 -120 58 -211 74 -425 74 -164
0 -193 -3 -257 -23 -105 -33 -163 -90 -163 -160 0 -43 58 -122 115 -157 46
-28 54 -30 144 -29 67 1 137 11 231 32 306 70 409 64 512 -30 37 -33 37 -34
77 -238 131 -667 160 -971 117 -1193 -26 -136 -52 -194 -114 -259 -58 -61 -74
-67 -110 -42 -31 21 -125 211 -151 305 -52 185 -118 307 -222 411 -118 117
-212 157 -534 228 -181 40 -173 36 -180 69 -9 40 -42 68 -108 91 -189 67 -398
33 -607 -98 -185 -116 -292 -293 -375 -621 -36 -144 -103 -481 -119 -606 -22
-164 -16 -497 13 -635 48 -237 123 -407 231 -524 l40 -43 -123 -7 c-160 -9
-312 -33 -362 -58 -22 -11 -62 -36 -89 -56 -83 -58 -144 -82 -213 -82 -78 0
-135 24 -191 81 -76 75 -122 198 -158 414 -25 150 -25 502 -1 703 58 473 133
784 250 1037 122 262 267 466 473 665 97 93 129 119 445 353 87 63 194 148
239 188 97 85 244 254 328 377 136 198 524 478 742 536 30 8 91 15 136 15 71
1 88 -3 142 -30z m-13 -733 c82 -7 197 -35 240 -60 17 -9 23 -15 14 -12 -28 8
-218 -12 -358 -39 -163 -31 -269 -33 -301 -7 -22 18 -22 19 -5 46 30 46 89 69
195 76 52 3 106 5 120 4 14 -2 57 -5 95 -8z m-881 -1032 c9 -8 16 -25 16 -37
0 -32 28 -67 66 -83 19 -8 132 -34 253 -59 322 -66 460 -118 551 -206 52 -51
65 -79 105 -222 45 -162 100 -320 136 -386 l29 -54 -75 -79 c-55 -59 -87 -103
-120 -171 -95 -194 -112 -359 -57 -574 41 -161 103 -319 158 -400 24 -36 44
-67 44 -68 0 -1 -62 -5 -139 -9 -76 -3 -271 -18 -432 -31 -386 -34 -622 -42
-686 -25 -26 7 -97 32 -158 55 -60 23 -140 50 -177 59 -194 51 -301 221 -343
544 -27 206 -13 528 34 742 83 385 151 622 207 718 61 104 187 209 302 252
136 51 255 65 286 34z m2301 -1124 c246 -39 445 -107 830 -285 105 -48 217
-107 250 -131 33 -23 147 -118 254 -210 107 -91 227 -190 265 -219 123 -90
339 -221 706 -425 120 -67 297 -184 375 -247 140 -114 303 -397 234 -408 -33
-5 -160 44 -289 114 -132 70 -288 148 -519 258 -142 68 -339 177 -439 245 -82
56 -121 63 -154 30 -44 -43 -19 -104 106 -261 85 -107 197 -222 381 -390 364
-332 454 -423 568 -576 72 -97 74 -101 53 -124 -17 -18 -18 -18 -68 0 -85 33
-143 66 -357 202 -203 129 -429 283 -575 391 -42 31 -149 130 -238 221 -154
156 -165 165 -201 165 -42 0 -87 -35 -87 -67 0 -40 471 -512 631 -632 45 -34
123 -83 172 -108 70 -35 346 -200 365 -218 11 -10 -13 -47 -38 -60 -65 -34
-155 -13 -375 87 -66 30 -151 67 -190 83 -330 136 -601 340 -741 556 -57 88
-93 101 -141 53 -24 -24 -25 -30 -21 -100 13 -199 173 -359 528 -526 96 -45
101 -49 60 -44 -68 8 -353 112 -450 163 -113 61 -236 145 -345 238 -49 42
-199 163 -332 270 -273 220 -396 332 -489 449 -59 75 -154 238 -154 266 0 7
14 28 30 47 17 18 30 42 30 51 0 19 -34 61 -50 63 -6 1 -16 2 -22 3 -7 1 -31
-4 -53 -12 -70 -23 -166 -40 -295 -51 -187 -16 -232 -21 -261 -27 -17 -3 -34
2 -53 17 -69 54 -209 423 -223 588 -15 184 93 430 236 537 56 42 22 38 471 52
281 8 427 2 615 -28z m1955 -741 c85 -27 173 -58 195 -69 l40 -20 -90 5 c-173
9 -426 97 -498 173 l-29 30 114 -35 c62 -19 183 -57 268 -84z m3410 -125 c136
-35 287 -111 339 -170 48 -55 51 -69 14 -59 -73 17 -456 201 -528 253 -18 13
-15 13 30 7 28 -4 93 -18 145 -31z m-854 1 c16 -8 38 -15 48 -15 42 0 155 -34
233 -70 226 -105 413 -289 614 -605 45 -72 97 -148 115 -169 45 -53 125 -111
209 -153 104 -52 230 -138 263 -181 16 -20 39 -57 52 -81 26 -52 44 -189 26
-208 -32 -33 -199 -133 -341 -203 l-160 -78 -135 -16 c-116 -14 -318 -34 -505
-51 -279 -25 -586 -25 -980 0 -38 3 -153 9 -255 15 -269 15 -347 20 -420 25
-36 3 -108 7 -160 10 -109 7 -313 25 -316 28 -1 1 -11 20 -22 43 -59 117 -264
361 -567 674 -224 232 -219 220 -59 141 76 -38 195 -94 264 -126 69 -32 163
-75 210 -97 147 -69 225 -91 318 -92 l83 -1 35 37 c32 36 34 41 34 112 0 85
-25 176 -69 251 -71 122 -225 271 -406 392 l-76 51 58 7 c225 24 349 43 666
101 157 29 391 65 572 89 256 35 460 91 595 165 43 23 41 23 76 5z m-5010
-575 c106 -185 253 -331 649 -650 386 -310 449 -357 623 -456 73 -41 75 -43
50 -53 -46 -17 -258 -59 -484 -96 -236 -38 -360 -68 -475 -115 -236 -96 -415
-273 -512 -505 -14 -33 -40 -113 -58 -177 -18 -65 -36 -118 -41 -118 -29 0
-83 151 -119 336 -22 113 -22 116 -4 147 134 232 244 364 359 431 69 40 86 59
86 96 0 31 -44 70 -79 70 -52 0 -182 -89 -265 -181 -25 -28 -46 -49 -46 -47 0
2 35 74 79 160 86 171 122 282 124 389 2 57 -1 72 -19 89 -31 32 -78 29 -115
-6 -81 -76 -143 -200 -209 -414 -49 -163 -72 -224 -106 -292 -36 -70 -45 -50
-45 97 1 204 40 324 173 527 119 181 177 320 178 426 0 42 -30 72 -74 72 -30
0 -47 -14 -162 -133 -228 -234 -324 -411 -324 -593 l0 -62 -65 -63 c-36 -34
-74 -69 -86 -77 l-21 -15 4 244 c5 280 10 302 97 426 85 120 292 295 501 423
66 40 343 190 346 187 1 -1 19 -31 40 -67z"/>
<path d="M6367 14580 c-174 -37 -307 -123 -395 -254 -49 -73 -102 -207 -102
-257 0 -56 86 -92 124 -51 9 11 26 47 37 81 58 171 167 279 333 328 70 21 213
30 320 20 92 -9 282 -52 349 -80 37 -16 37 -17 31 -59 -7 -49 -29 -102 -50
-119 -11 -9 -22 -6 -53 14 -73 49 -134 62 -276 62 -107 -1 -140 -5 -185 -22
-30 -11 -116 -43 -190 -71 -74 -28 -140 -59 -147 -68 -31 -42 2 -124 49 -124
9 0 73 20 142 45 114 40 127 43 132 27 16 -52 40 -83 79 -102 72 -35 168 -20
243 36 l34 26 14 -21 c36 -50 142 -10 220 83 51 61 135 208 159 278 17 52 17
58 2 81 -28 43 -261 120 -451 151 -132 20 -313 19 -419 -4z"/>
<path d="M5365 12627 c-19 -16 -27 -33 -28 -59 -2 -61 34 -88 186 -143 71 -25
76 -29 55 -39 -32 -16 -52 -57 -44 -90 8 -31 70 -63 178 -92 85 -22 214 -15
285 16 70 30 87 50 80 94 -5 34 -4 36 31 41 215 36 364 159 311 256 -23 43
-53 42 -152 -5 -155 -75 -208 -89 -322 -88 -201 2 -334 28 -453 89 -47 24 -88
43 -93 43 -4 0 -20 -10 -34 -23z m450 -272 l80 -13 -60 0 c-34 -1 -84 7 -115
18 -60 20 -52 20 95 -5z"/>
</g>
</svg>
